<svg id="visual" viewBox="0 0 900 600" width="900" height="600" xmlns="http://www.w3.org/2000/svg" xmlns:xlink="http://www.w3.org/1999/xlink" version="1.1"><g stroke-width="1" stroke-linejoin="bevel"><path d="M499.9 314L499.9 368L578.7 312Z" fill="#4100e6" stroke="#4100e6"></path><path d="M499.9 368L580.7 378L578.7 312Z" fill="#2500d6" stroke="#2500d6"></path><path d="M580.7 378L641.5 308L578.7 312Z" fill="#2500d6" stroke="#2500d6"></path><path d="M578.7 312L504.9 217L499.9 314Z" fill="#6600ff" stroke="#6600ff"></path><path d="M584.7 450L645.5 387L580.7 378Z" fill="#5800f5" stroke="#5800f5"></path><path d="M580.7 378L645.5 387L641.5 308Z" fill="#5100f0" stroke="#5100f0"></path><path d="M505.9 465L584.7 450L580.7 378Z" fill="#5800f5" stroke="#5800f5"></path><path d="M499.9 368L505.9 465L580.7 378Z" fill="#0000cc" stroke="#0000cc"></path><path d="M584.7 219L504.9 217L578.7 312Z" fill="#5f00fa" stroke="#5f00fa"></path><path d="M641.5 308L584.7 219L578.7 312Z" fill="#4100e6" stroke="#4100e6"></path><path d="M397.1 289L404.1 382L499.9 314Z" fill="#6600ff" stroke="#6600ff"></path><path d="M499.9 314L404.1 382L499.9 368Z" fill="#1700d1" stroke="#1700d1"></path><path d="M499.9 368L411.1 442L505.9 465Z" fill="#2f00dc" stroke="#2f00dc"></path><path d="M584.7 450L644.5 449L645.5 387Z" fill="#2f00dc" stroke="#2f00dc"></path><path d="M654.5 509L644.5 449L584.7 450Z" fill="#3800e1" stroke="#3800e1"></path><path d="M504.9 217L397.1 289L499.9 314Z" fill="#5100f0" stroke="#5100f0"></path><path d="M404.1 382L411.1 442L499.9 368Z" fill="#5f00fa" stroke="#5f00fa"></path><path d="M737.4 302L666.5 230L641.5 308Z" fill="#5f00fa" stroke="#5f00fa"></path><path d="M641.5 308L666.5 230L584.7 219Z" fill="#2500d6" stroke="#2500d6"></path><path d="M737.4 302L641.5 308L645.5 387Z" fill="#5f00fa" stroke="#5f00fa"></path><path d="M482.9 518L571.7 509L505.9 465Z" fill="#2f00dc" stroke="#2f00dc"></path><path d="M505.9 465L571.7 509L584.7 450Z" fill="#4100e6" stroke="#4100e6"></path><path d="M504.9 217L400.1 227L397.1 289Z" fill="#2f00dc" stroke="#2f00dc"></path><path d="M411.1 442L482.9 518L505.9 465Z" fill="#6600ff" stroke="#6600ff"></path><path d="M585.7 136L482.9 162L504.9 217Z" fill="#4100e6" stroke="#4100e6"></path><path d="M504.9 217L482.9 162L400.1 227Z" fill="#6600ff" stroke="#6600ff"></path><path d="M585.7 136L504.9 217L584.7 219Z" fill="#3800e1" stroke="#3800e1"></path><path d="M750.4 374L737.4 302L645.5 387Z" fill="#4900eb" stroke="#4900eb"></path><path d="M658.5 600L654.5 509L571.7 509Z" fill="#5100f0" stroke="#5100f0"></path><path d="M571.7 509L654.5 509L584.7 450Z" fill="#3800e1" stroke="#3800e1"></path><path d="M734.4 458L750.4 374L645.5 387Z" fill="#0000cc" stroke="#0000cc"></path><path d="M647.5 136L584.7 219L666.5 230Z" fill="#5f00fa" stroke="#5f00fa"></path><path d="M647.5 136L585.7 136L584.7 219Z" fill="#3800e1" stroke="#3800e1"></path><path d="M734.4 458L645.5 387L644.5 449Z" fill="#0000cc" stroke="#0000cc"></path><path d="M337.3 212L330.3 303L397.1 289Z" fill="#2500d6" stroke="#2500d6"></path><path d="M397.1 289L330.3 303L404.1 382Z" fill="#2f00dc" stroke="#2f00dc"></path><path d="M404.1 382L313.3 459L411.1 442Z" fill="#2f00dc" stroke="#2f00dc"></path><path d="M330.3 303L323.3 364L404.1 382Z" fill="#0000cc" stroke="#0000cc"></path><path d="M411.1 442L411.1 517L482.9 518Z" fill="#0000cc" stroke="#0000cc"></path><path d="M339.3 520L411.1 517L411.1 442Z" fill="#5800f5" stroke="#5800f5"></path><path d="M740.4 150L731.4 233L806.2 240Z" fill="#0000cc" stroke="#0000cc"></path><path d="M737.4 302L731.4 233L666.5 230Z" fill="#5f00fa" stroke="#5f00fa"></path><path d="M654.5 509L734.4 458L644.5 449Z" fill="#5100f0" stroke="#5100f0"></path><path d="M740.4 150L647.5 136L666.5 230Z" fill="#4100e6" stroke="#4100e6"></path><path d="M336.3 156L337.3 212L400.1 227Z" fill="#2f00dc" stroke="#2f00dc"></path><path d="M400.1 227L337.3 212L397.1 289Z" fill="#5800f5" stroke="#5800f5"></path><path d="M330.3 303L256.5 360L323.3 364Z" fill="#2f00dc" stroke="#2f00dc"></path><path d="M482.9 162L398.1 137L400.1 227Z" fill="#5f00fa" stroke="#5f00fa"></path><path d="M490.9 84L398.1 137L482.9 162Z" fill="#5800f5" stroke="#5800f5"></path><path d="M256.5 360L313.3 459L323.3 364Z" fill="#1700d1" stroke="#1700d1"></path><path d="M323.3 364L313.3 459L404.1 382Z" fill="#2500d6" stroke="#2500d6"></path><path d="M505.9 600L571.7 509L482.9 518Z" fill="#6600ff" stroke="#6600ff"></path><path d="M505.9 600L557.7 600L571.7 509Z" fill="#5f00fa" stroke="#5f00fa"></path><path d="M654.5 509L746.4 518L734.4 458Z" fill="#5f00fa" stroke="#5f00fa"></path><path d="M415.1 600L505.9 600L482.9 518Z" fill="#2f00dc" stroke="#2f00dc"></path><path d="M415.1 600L482.9 518L411.1 517Z" fill="#5800f5" stroke="#5800f5"></path><path d="M563.7 69L490.9 84L585.7 136Z" fill="#1700d1" stroke="#1700d1"></path><path d="M585.7 136L490.9 84L482.9 162Z" fill="#5800f5" stroke="#5800f5"></path><path d="M313.3 459L339.3 520L411.1 442Z" fill="#0000cc" stroke="#0000cc"></path><path d="M658.5 600L746.4 518L654.5 509Z" fill="#2500d6" stroke="#2500d6"></path><path d="M803.2 457L823.2 381L750.4 374Z" fill="#4900eb" stroke="#4900eb"></path><path d="M653.5 71L563.7 69L585.7 136Z" fill="#5100f0" stroke="#5100f0"></path><path d="M398.1 137L336.3 156L400.1 227Z" fill="#4100e6" stroke="#4100e6"></path><path d="M246.5 287L256.5 360L330.3 303Z" fill="#4100e6" stroke="#4100e6"></path><path d="M340.3 65L336.3 156L398.1 137Z" fill="#2f00dc" stroke="#2f00dc"></path><path d="M806.2 240L731.4 233L737.4 302Z" fill="#5100f0" stroke="#5100f0"></path><path d="M731.4 233L740.4 150L666.5 230Z" fill="#4900eb" stroke="#4900eb"></path><path d="M647.5 136L653.5 71L585.7 136Z" fill="#5800f5" stroke="#5800f5"></path><path d="M246.5 287L330.3 303L243.5 235Z" fill="#5f00fa" stroke="#5f00fa"></path><path d="M313.3 459L246.5 509L339.3 520Z" fill="#3800e1" stroke="#3800e1"></path><path d="M833.2 307L806.2 240L737.4 302Z" fill="#2500d6" stroke="#2500d6"></path><path d="M833.2 307L737.4 302L750.4 374Z" fill="#0000cc" stroke="#0000cc"></path><path d="M557.7 600L658.5 600L571.7 509Z" fill="#4900eb" stroke="#4900eb"></path><path d="M803.2 457L750.4 374L734.4 458Z" fill="#5800f5" stroke="#5800f5"></path><path d="M339.3 520L415.1 600L411.1 517Z" fill="#4100e6" stroke="#4100e6"></path><path d="M746.4 518L803.2 457L734.4 458Z" fill="#0000cc" stroke="#0000cc"></path><path d="M725.4 70L653.5 71L647.5 136Z" fill="#4100e6" stroke="#4100e6"></path><path d="M823.2 381L833.2 307L750.4 374Z" fill="#2500d6" stroke="#2500d6"></path><path d="M243.5 235L330.3 303L337.3 212Z" fill="#6600ff" stroke="#6600ff"></path><path d="M490.9 84L400.1 69L398.1 137Z" fill="#2f00dc" stroke="#2f00dc"></path><path d="M474.9 0L400.1 69L490.9 84Z" fill="#2500d6" stroke="#2500d6"></path><path d="M256.5 160L243.5 235L337.3 212Z" fill="#6600ff" stroke="#6600ff"></path><path d="M256.5 160L337.3 212L336.3 156Z" fill="#5800f5" stroke="#5800f5"></path><path d="M658.5 600L736.4 600L746.4 518Z" fill="#5100f0" stroke="#5100f0"></path><path d="M746.4 518L804.2 539L803.2 457Z" fill="#2f00dc" stroke="#2f00dc"></path><path d="M176.6 387L236.5 465L256.5 360Z" fill="#4900eb" stroke="#4900eb"></path><path d="M256.5 360L236.5 465L313.3 459Z" fill="#0000cc" stroke="#0000cc"></path><path d="M339.3 520L325.3 600L415.1 600Z" fill="#5100f0" stroke="#5100f0"></path><path d="M176.6 387L256.5 360L166.6 306Z" fill="#1700d1" stroke="#1700d1"></path><path d="M740.4 150L725.4 70L647.5 136Z" fill="#1700d1" stroke="#1700d1"></path><path d="M653.5 71L583.7 0L563.7 69Z" fill="#1700d1" stroke="#1700d1"></path><path d="M827.2 76L725.4 70L740.4 150Z" fill="#2f00dc" stroke="#2f00dc"></path><path d="M736.4 600L804.2 539L746.4 518Z" fill="#5800f5" stroke="#5800f5"></path><path d="M900 372L833.2 307L823.2 381Z" fill="#1700d1" stroke="#1700d1"></path><path d="M900 372L900 315L833.2 307Z" fill="#3800e1" stroke="#3800e1"></path><path d="M236.5 83L256.5 160L336.3 156Z" fill="#5100f0" stroke="#5100f0"></path><path d="M246.5 509L325.3 600L339.3 520Z" fill="#2500d6" stroke="#2500d6"></path><path d="M900 224L823.2 158L806.2 240Z" fill="#4900eb" stroke="#4900eb"></path><path d="M806.2 240L823.2 158L740.4 150Z" fill="#5f00fa" stroke="#5f00fa"></path><path d="M236.5 465L246.5 509L313.3 459Z" fill="#2f00dc" stroke="#2f00dc"></path><path d="M421.1 0L340.3 65L400.1 69Z" fill="#2500d6" stroke="#2500d6"></path><path d="M400.1 69L340.3 65L398.1 137Z" fill="#5f00fa" stroke="#5f00fa"></path><path d="M474.9 0L490.9 84L563.7 69Z" fill="#6600ff" stroke="#6600ff"></path><path d="M660.5 0L583.7 0L653.5 71Z" fill="#4900eb" stroke="#4900eb"></path><path d="M583.7 0L474.9 0L563.7 69Z" fill="#3800e1" stroke="#3800e1"></path><path d="M900 372L823.2 381L900 457Z" fill="#2f00dc" stroke="#2f00dc"></path><path d="M833.2 307L900 224L806.2 240Z" fill="#5100f0" stroke="#5100f0"></path><path d="M474.9 0L421.1 0L400.1 69Z" fill="#3800e1" stroke="#3800e1"></path><path d="M900 457L823.2 381L803.2 457Z" fill="#4100e6" stroke="#4100e6"></path><path d="M725.4 70L660.5 0L653.5 71Z" fill="#6600ff" stroke="#6600ff"></path><path d="M745.4 0L660.5 0L725.4 70Z" fill="#0000cc" stroke="#0000cc"></path><path d="M166.6 306L256.5 360L246.5 287Z" fill="#2f00dc" stroke="#2f00dc"></path><path d="M236.5 465L160.6 530L246.5 509Z" fill="#0000cc" stroke="#0000cc"></path><path d="M166.6 306L246.5 287L243.5 235Z" fill="#1700d1" stroke="#1700d1"></path><path d="M174.6 215L166.6 306L243.5 235Z" fill="#2f00dc" stroke="#2f00dc"></path><path d="M900 514L803.2 457L804.2 539Z" fill="#5100f0" stroke="#5100f0"></path><path d="M900 514L900 457L803.2 457Z" fill="#4100e6" stroke="#4100e6"></path><path d="M900 315L900 224L833.2 307Z" fill="#5f00fa" stroke="#5f00fa"></path><path d="M823.2 158L827.2 76L740.4 150Z" fill="#3800e1" stroke="#3800e1"></path><path d="M256.5 160L174.6 215L243.5 235Z" fill="#4100e6" stroke="#4100e6"></path><path d="M149.6 135L174.6 215L256.5 160Z" fill="#2500d6" stroke="#2500d6"></path><path d="M736.4 600L828.2 600L804.2 539Z" fill="#2500d6" stroke="#2500d6"></path><path d="M900 149L827.2 76L823.2 158Z" fill="#5f00fa" stroke="#5f00fa"></path><path d="M827.2 76L745.4 0L725.4 70Z" fill="#5100f0" stroke="#5100f0"></path><path d="M258.5 0L236.5 83L340.3 65Z" fill="#4100e6" stroke="#4100e6"></path><path d="M340.3 65L236.5 83L336.3 156Z" fill="#2500d6" stroke="#2500d6"></path><path d="M160.6 530L236.5 600L246.5 509Z" fill="#5100f0" stroke="#5100f0"></path><path d="M246.5 509L236.5 600L325.3 600Z" fill="#5100f0" stroke="#5100f0"></path><path d="M828.2 600L900 514L804.2 539Z" fill="#4100e6" stroke="#4100e6"></path><path d="M86.8 383L148.6 440L176.6 387Z" fill="#5f00fa" stroke="#5f00fa"></path><path d="M176.6 387L148.6 440L236.5 465Z" fill="#5800f5" stroke="#5800f5"></path><path d="M86.8 383L176.6 387L166.6 306Z" fill="#4100e6" stroke="#4100e6"></path><path d="M900 224L900 149L823.2 158Z" fill="#0000cc" stroke="#0000cc"></path><path d="M421.1 0L313.3 0L340.3 65Z" fill="#6600ff" stroke="#6600ff"></path><path d="M148.6 440L160.6 530L236.5 465Z" fill="#4100e6" stroke="#4100e6"></path><path d="M153.6 0L178.6 90L236.5 83Z" fill="#5100f0" stroke="#5100f0"></path><path d="M236.5 83L178.6 90L256.5 160Z" fill="#0000cc" stroke="#0000cc"></path><path d="M83.8 295L86.8 383L166.6 306Z" fill="#5100f0" stroke="#5100f0"></path><path d="M178.6 90L149.6 135L256.5 160Z" fill="#2f00dc" stroke="#2f00dc"></path><path d="M313.3 0L258.5 0L340.3 65Z" fill="#6600ff" stroke="#6600ff"></path><path d="M827.2 76L823.2 0L745.4 0Z" fill="#4900eb" stroke="#4900eb"></path><path d="M900 71L823.2 0L827.2 76Z" fill="#5800f5" stroke="#5800f5"></path><path d="M828.2 600L900 600L900 514Z" fill="#6600ff" stroke="#6600ff"></path><path d="M900 149L900 71L827.2 76Z" fill="#5f00fa" stroke="#5f00fa"></path><path d="M83.8 295L166.6 306L174.6 215Z" fill="#2500d6" stroke="#2500d6"></path><path d="M148.6 440L71.8 524L160.6 530Z" fill="#2500d6" stroke="#2500d6"></path><path d="M73.8 234L83.8 295L174.6 215Z" fill="#0000cc" stroke="#0000cc"></path><path d="M160.6 530L148.6 600L236.5 600Z" fill="#6600ff" stroke="#6600ff"></path><path d="M87.8 600L148.6 600L160.6 530Z" fill="#6600ff" stroke="#6600ff"></path><path d="M86.8 156L174.6 215L149.6 135Z" fill="#1700d1" stroke="#1700d1"></path><path d="M86.8 156L73.8 234L174.6 215Z" fill="#0000cc" stroke="#0000cc"></path><path d="M0 361L68.8 445L86.8 383Z" fill="#0000cc" stroke="#0000cc"></path><path d="M0 361L86.8 383L83.8 295Z" fill="#6600ff" stroke="#6600ff"></path><path d="M86.8 383L68.8 445L148.6 440Z" fill="#2500d6" stroke="#2500d6"></path><path d="M86.8 65L86.8 156L149.6 135Z" fill="#5100f0" stroke="#5100f0"></path><path d="M86.8 65L149.6 135L178.6 90Z" fill="#0000cc" stroke="#0000cc"></path><path d="M900 71L900 0L823.2 0Z" fill="#2500d6" stroke="#2500d6"></path><path d="M68.8 445L71.8 524L148.6 440Z" fill="#5800f5" stroke="#5800f5"></path><path d="M258.5 0L153.6 0L236.5 83Z" fill="#3800e1" stroke="#3800e1"></path><path d="M71.8 524L87.8 600L160.6 530Z" fill="#3800e1" stroke="#3800e1"></path><path d="M153.6 0L86.8 65L178.6 90Z" fill="#6600ff" stroke="#6600ff"></path><path d="M0 294L83.8 295L73.8 234Z" fill="#1700d1" stroke="#1700d1"></path><path d="M68.8 445L0 460L71.8 524Z" fill="#1700d1" stroke="#1700d1"></path><path d="M71.8 524L0 600L87.8 600Z" fill="#1700d1" stroke="#1700d1"></path><path d="M0 294L0 361L83.8 295Z" fill="#4900eb" stroke="#4900eb"></path><path d="M0 294L73.8 234L0 232Z" fill="#1700d1" stroke="#1700d1"></path><path d="M0 232L73.8 234L0 162Z" fill="#5800f5" stroke="#5800f5"></path><path d="M0 162L73.8 234L86.8 156Z" fill="#0000cc" stroke="#0000cc"></path><path d="M0 361L0 460L68.8 445Z" fill="#4100e6" stroke="#4100e6"></path><path d="M153.6 0L93.8 0L86.8 65Z" fill="#4100e6" stroke="#4100e6"></path><path d="M0 72L0 162L86.8 156Z" fill="#5f00fa" stroke="#5f00fa"></path><path d="M0 72L86.8 156L86.8 65Z" fill="#3800e1" stroke="#3800e1"></path><path d="M0 460L0 531L71.8 524Z" fill="#4100e6" stroke="#4100e6"></path><path d="M0 531L0 600L71.8 524Z" fill="#5100f0" stroke="#5100f0"></path><path d="M0 0L0 72L86.8 65Z" fill="#3800e1" stroke="#3800e1"></path><path d="M93.8 0L0 0L86.8 65Z" fill="#5f00fa" stroke="#5f00fa"></path></g></svg>